<?xml version="1.0" encoding="iso-8859-1"?>
<!DOCTYPE svg PUBLIC "-//W3C//DTD SVG 1.1//EN" "http://www.w3.org/Graphics/SVG/1.1/DTD/svg11.dtd">
<svg 
 version="1.1" xmlns="http://www.w3.org/2000/svg" xmlns:xlink="http://www.w3.org/1999/xlink" x="0px" y="0px" width="512px"
	 height="512px" viewBox="0 0 512 512" style="enable-background:new 0 0 512 512;" xml:space="preserve"
><g id="afcae5a789ccd549f9c6e2a2f8155c67"><g></g><g fill="#ffffff"><path style="display: inline; fill-rule: evenodd; clip-rule: evenodd;" d="M256,415.746c-15.037-0.491-52.123-2.001-85.766-5.739
		c-36.171-4.025-67.913-11.905-67.913-11.905s-8.918-19.699-15.823-39.644c-7.086-20.469-12.168-41.211-12.168-41.211
		s49.037,4.396,96.918,6.637c31.863,1.489,63.189,1.93,79.229,2.063l0.004,0.055c0,0,1.988,0,5.519-0.021
		c3.53,0.021,5.519,0.021,5.519,0.021l0.004-0.055c16.039-0.133,47.365-0.573,79.229-2.063c47.881-2.241,96.919-6.637,96.919-6.637
		s-5.082,20.742-12.168,41.211c-6.903,19.944-15.823,39.644-15.823,39.644s-31.742,7.88-67.913,11.905
		C308.123,413.745,271.037,415.255,256,415.746z M408.976,98.502c0,0,5.88-6.315,11.894-14.705
		c3.422-4.776,6.915-10.078,9.644-14.333c-27.634-25.857-60.973-45.686-97.975-57.288c-1.211,9.893-3.219,25.363-5.511,39.352
		c-2.761,16.884-6.57,31.569-6.57,31.569s20.826,2.246,42.275,5.637C385.505,92.337,408.976,98.502,408.976,98.502z M91.131,83.797
		c6.013,8.39,11.894,14.705,11.894,14.705s23.471-6.165,46.243-9.766c21.45-3.392,42.276-5.637,42.276-5.637
		s-3.805-14.686-6.571-31.569c-2.291-13.989-4.3-29.459-5.51-39.352c-37.003,11.602-70.342,31.43-97.975,57.288
		C84.215,73.719,87.708,79.021,91.131,83.797z M102.425,414.132c0,0-3.996,7.444-9.392,14.884
		c-4.196,5.789-9.197,11.527-11.232,13.818c27.59,25.733,60.85,45.461,97.744,57.018c1.069-8.184,2.919-21.944,4.995-35.306
		c2.944-18.942,6.454-37.015,6.454-37.015s-23.62-1.231-46.122-4.633C123.102,419.604,102.425,414.132,102.425,414.132z
		 M418.965,429.016c-5.395-7.439-9.391-14.884-9.391-14.884s-20.676,5.473-42.446,8.767c-22.501,3.401-46.122,4.633-46.122,4.633
		s3.51,18.072,6.454,37.015c2.075,13.361,3.926,27.122,4.994,35.306c36.895-11.557,70.155-31.284,97.747-57.018
		C428.163,440.543,423.164,434.805,418.965,429.016z M75.383,193.699c0,0,42.163-3.35,86.776-5.057
		c30.328-1.16,61.821-1.75,82.373-2.04l0.004-0.251c0,0,4.246,0.027,11.465,0.108c7.219-0.081,11.465-0.108,11.465-0.108
		l0.004,0.251c20.552,0.289,52.045,0.879,82.373,2.04c44.612,1.707,86.775,5.057,86.775,5.057s-4.304-22.279-11.323-43.243
		c-6.229-18.622-15.267-36.206-15.267-36.206s-27.371-8.86-56.668-12.004c-37.552-4.027-81.711-4.905-97.359-5.094
		c-15.648,0.189-59.808,1.067-97.359,5.094c-29.297,3.144-56.668,12.004-56.668,12.004s-9.034,17.584-15.268,36.206
		C79.689,171.42,75.383,193.699,75.383,193.699z M69.411,253.201c0.181,23.434,3.171,47.599,3.171,47.599s43.916,4.121,89.56,6.217
		c38.5,1.771,78.222,2.32,93.858,2.475c15.636-0.154,55.358-0.703,93.858-2.475c45.644-2.096,89.558-6.217,89.558-6.217
		s2.994-24.165,3.173-47.599c0.171-21.454-2.47-42.35-2.47-42.35s-38.176-3.477-82.202-5.365
		c-38.841-1.666-81.698-2.518-101.917-2.857c-20.219,0.339-63.077,1.191-101.917,2.857c-44.026,1.888-82.202,5.365-82.202,5.365
		S69.243,231.748,69.411,253.201z M79.129,419.643c5.394-7.132,10.644-15.932,10.644-15.932s-37.213-73.868-37.213-148.106
		c0-74.98,37.213-150.339,37.213-150.339s-5.924-5.269-10.873-11.681c-3.834-4.969-7.115-10.585-8.508-13.068
		C27.098,126.292,0.5,188.021,0.5,256c0,68.059,26.66,129.85,70.044,175.64C71.382,430.396,74.788,425.377,79.129,419.643z
		 M311.662,466.709c-2.857-19.117-5.901-37.107-5.901-37.107s-16.06,0.994-31.131,1.272c-6.998,0.129-13.765,0.059-18.63-0.033
		c-4.865,0.092-11.632,0.162-18.63,0.033c-15.071-0.278-31.131-1.272-31.131-1.272s-3.044,17.99-5.901,37.107
		c-2.112,14.143-4.167,28.855-5.339,37.405c19.553,4.791,39.967,7.386,61.001,7.386s41.448-2.595,61.006-7.386
		C315.829,495.564,313.774,480.852,311.662,466.709z M200.134,45.618c2.978,18.688,6.454,36.081,6.454,36.081
		s16.642-0.349,31.837-0.349c6.646,0,13,0.096,17.574,0.187c4.574-0.091,10.929-0.187,17.574-0.187
		c15.195,0,31.838,0.349,31.838,0.349s3.476-17.393,6.453-36.081c2.259-14.154,4.325-29.008,5.498-37.649
		C297.702,3.12,277.158,0.5,256,0.5s-41.702,2.62-61.363,7.469C195.81,16.61,197.876,31.464,200.134,45.618z M441.607,80.516
		c-1.393,2.483-4.674,8.099-8.508,13.068c-4.949,6.413-10.875,11.681-10.875,11.681s37.215,75.359,37.215,150.339
		c0,74.238-37.215,148.106-37.215,148.106s5.252,8.8,10.646,15.932c4.342,5.734,7.748,10.749,8.588,11.997
		C484.84,385.85,511.5,324.059,511.5,256C511.5,188.021,484.902,126.292,441.607,80.516z"></path></g></g></svg>