<?xml version="1.0" encoding="iso-8859-1"?>
<!DOCTYPE svg PUBLIC "-//W3C//DTD SVG 1.1//EN" "http://www.w3.org/Graphics/SVG/1.1/DTD/svg11.dtd">
<svg 
 version="1.1" xmlns="http://www.w3.org/2000/svg" xmlns:xlink="http://www.w3.org/1999/xlink" x="0px" y="0px" width="512px"
	 height="512px" viewBox="0 0 512 512" style="enable-background:new 0 0 512 512;" xml:space="preserve"
><g id="afcae5a789ccd549f9c6e2a2f81447dd"><g></g><g fill="#262626"><path style="display: inline;" d="M467.448,0.5v59.472H44.552V0.5H467.448z M152.334,167.849
		c30.003-19.077,65.554-30.179,103.666-30.179c38.111,0,73.663,11.103,103.666,30.179l107.782-96.866H44.552L152.334,167.849z
		 M396.966,335.293c0,77.73-63.235,140.966-140.966,140.966s-140.965-63.235-140.965-140.966
		c0-77.729,63.235-140.965,140.965-140.965S396.966,257.564,396.966,335.293z M316.502,392.423h-36.549V242.757l-76.815,15.487
		v31.717l37.788-8.177v110.639h-36.797v30.974h112.373V392.423z M432.207,335.293c0,97.162-79.045,176.207-176.207,176.207
		c-97.162,0-176.207-79.045-176.207-176.207c0-97.162,79.045-176.207,176.207-176.207
		C353.162,159.086,432.207,238.131,432.207,335.293z M414.586,335.293c0-87.446-71.14-158.586-158.586-158.586
		S97.414,247.847,97.414,335.293c0,87.446,71.14,158.586,158.586,158.586S414.586,422.739,414.586,335.293z"></path></g></g></svg>