<?xml version="1.0" encoding="iso-8859-1"?>
<!DOCTYPE svg PUBLIC "-//W3C//DTD SVG 1.1//EN" "http://www.w3.org/Graphics/SVG/1.1/DTD/svg11.dtd">
<svg 
 version="1.1" xmlns="http://www.w3.org/2000/svg" xmlns:xlink="http://www.w3.org/1999/xlink" x="0px" y="0px" width="512px"
	 height="512px" viewBox="0 0 512 512" style="enable-background:new 0 0 512 512;" xml:space="preserve"
><g id="afcae5a789ccd549f9c6e2a2f8154c6f"><g></g><g fill="#ffffff"><path style="display: inline; fill-rule: evenodd; clip-rule: evenodd;" d="M257.464,189.634l58.032,106.25l-57.217,87.453H143.844
		l-26.157-36.782L91.53,281.172l56.402-93.991L257.464,189.634z M99.706,432.376l-56.772-35.394
		c30.723,46.33,76.143,82.027,129.617,100.503L99.706,432.376z M19.604,334.301l2.187-57.808l-20.231-43.22
		C0.899,240.767,0.5,248.336,0.5,256c0,29.484,5.053,57.778,14.243,84.131L19.604,334.301z M314.677,103.814l-29.426,45.769
		l-20.435,35.963l26.314,50.227l33.355,56.028l90.728,4.903l47.415-84.186c0,0-15.586-39.739-21.657-52.597
		c-6.01-12.712-26.569-49.57-26.569-49.57L314.677,103.814z M28.595,274.635l56.539-0.005l56.689-92.352l-13.511-89.088
		l-62.936-0.815l-1.251-4.995C29.564,126.674,6.871,176.639,1.677,231.723L28.595,274.635z M237.028,37.615l75.395,57.899
		l103.531,6.387l14.359-32.624C384.661,26.641,323.397,0.5,256,0.5c-7.174,0-14.26,0.37-21.283,0.948L237.028,37.615z
		 M469.981,213.338l-43.324,86.635l-0.811,90.722l46.746,0.782C497.216,352.195,511.5,305.777,511.5,256
		c0-14.779-1.326-29.243-3.734-43.336L469.981,213.338z M130.113,85.933l97.102-49.137l-1.493-34.449
		C162.25,9.844,105.915,40.572,65.46,85.837L130.113,85.933z M263.186,510.023l55.579-56.394l-61.713-62.428l-115.229-0.267
		c0,0-33.946,34.088-29.039,39.81c3.734,4.354,52.002,49.928,74.82,71.423c21.778,6.038,44.696,9.332,68.396,9.332
		c6.055,0,12.039-0.287,17.99-0.703L263.186,510.023z M414.402,401.319l-85.828,54.76l-53.844,54.664
		c79.993-5.806,149.777-48.372,192.469-110.954L414.402,401.319z"></path></g></g></svg>