<?xml version="1.0" encoding="iso-8859-1"?>
<!DOCTYPE svg PUBLIC "-//W3C//DTD SVG 1.1//EN" "http://www.w3.org/Graphics/SVG/1.1/DTD/svg11.dtd">
<svg 
 version="1.1" xmlns="http://www.w3.org/2000/svg" xmlns:xlink="http://www.w3.org/1999/xlink" x="0px" y="0px" width="512px"
	 height="512px" viewBox="0 0 512 512" style="enable-background:new 0 0 512 512;" xml:space="preserve"
><g id="afcae5a789ccd549f9c6e2a2f8143f13"><g></g><g fill="#ffffff"><path style="display: inline;" d="M396.409,187.711c0,77.422-62.987,140.409-140.409,140.409
		c-77.423,0-140.409-62.986-140.409-140.409c0-77.422,62.986-140.409,140.409-140.409
		C333.422,47.303,396.409,110.29,396.409,187.711z M418.15,281.34c-7.825,13.528-31.402,15.167-42.379,26.144
		c-10.984,10.98-12.622,34.554-26.151,42.378c-13.331,7.72-34.531-2.57-49.765,1.5c-14.721,3.934-27.892,23.562-43.855,23.562
		s-29.135-19.628-43.856-23.562c-15.236-4.07-36.433,6.22-49.771-1.5c-13.529-7.824-15.167-31.397-26.144-42.378
		c-10.98-10.977-34.554-12.619-42.381-26.147c-7.717-13.335,2.572-34.534-1.497-49.767c-3.937-14.721-23.563-27.894-23.563-43.858
		c0-15.964,19.626-29.136,23.563-43.857c4.069-15.235-6.22-36.431,1.499-49.768c7.827-13.529,31.398-15.167,42.379-26.144
		c10.977-10.982,12.618-34.556,26.147-42.382c13.335-7.717,34.531,2.572,49.768-1.497C226.865,20.126,240.036,0.5,256,0.5
		s29.135,19.626,43.855,23.563c15.237,4.069,36.434-6.22,49.772,1.497c13.529,7.827,15.167,31.4,26.144,42.382
		c10.984,10.98,34.554,12.617,42.383,26.147c7.719,13.335-2.574,34.532,1.495,49.765c3.935,14.721,23.563,27.894,23.563,43.857
		c0,15.964-19.628,29.137-23.563,43.858C415.58,246.804,425.869,268.001,418.15,281.34z M412.007,187.711
		c0-86.161-69.846-156.009-156.007-156.009S99.991,101.55,99.991,187.711c0,86.162,69.848,156.007,156.009,156.007
		S412.007,273.873,412.007,187.711z M203.566,369.734c-3.317,0-7.364,0.523-11.653,1.079c-5.236,0.673-10.651,1.375-16.305,1.375
		c-8.845,0-16.242-1.792-22.611-5.478c-13.047-7.547-18.655-21.076-23.16-31.95c-2.172-5.243-4.633-11.182-6.849-13.397
		c-0.841-0.841-2.224-1.719-3.897-2.604L34.893,451.256l64.974,2.465l29.832,57.779l86.435-136.018
		c-3.323-2.482-6.731-4.83-8.826-5.393C206.703,369.929,205.555,369.734,203.566,369.734z M392.909,318.76
		c-1.675,0.885-3.061,1.763-3.901,2.604c-2.216,2.216-4.68,8.161-6.852,13.404c-4.505,10.867-10.114,24.396-23.16,31.943
		c-6.366,3.686-13.764,5.478-22.604,5.478h-0.004c-5.653,0-11.068-0.702-16.305-1.375c-4.285-0.556-8.336-1.079-11.649-1.079
		c-1.989,0-3.137,0.194-3.744,0.355c-2.091,0.563-5.499,2.91-8.823,5.393L382.302,511.5l29.83-57.779l64.976-2.465L392.909,318.76z"></path></g></g></svg>