<?xml version="1.0" encoding="iso-8859-1"?>
<!DOCTYPE svg PUBLIC "-//W3C//DTD SVG 1.1//EN" "http://www.w3.org/Graphics/SVG/1.1/DTD/svg11.dtd">
<svg 
 version="1.1" xmlns="http://www.w3.org/2000/svg" xmlns:xlink="http://www.w3.org/1999/xlink" x="0px" y="0px" width="512px"
	 height="512px" viewBox="0 0 512 512" enable-background="new 0 0 512 512" xml:space="preserve"
><g id="e6c6b53d3c8160b22dad35a0f70c4f21"><g></g><g fill="#ffffff"><path display="inline" d="M484.861,141.558l-24.516,24.516L345.924,51.656l24.521-24.518
		c33.852-33.854,86.911-35.685,118.504-4.087C520.546,54.648,518.718,107.704,484.861,141.558z M440.443,174.779
		c7.096,7.1,4.364,18.248-2.051,27.857c-43.515,65.179-116.041,284.958-116.041,284.958c-11.464,20.038-35.803,29.297-54.366,20.687
		c-18.563-8.619-24.325-31.855-12.861-51.898C262.138,444.107,318.31,344.416,365.036,271l-19.407-19.408
		C290.287,328.184,210.04,427.485,199.125,438.4c-17.493,17.493-43.229,20.11-57.479,5.861
		c-14.25-14.254-11.627-39.985,5.866-57.475c10.911-10.915,100.163-101.211,169.201-164.111l-27.392-27.387
		c-62.9,69.033-153.196,158.286-164.106,169.201c-17.493,17.493-43.225,20.115-57.479,5.861
		c-14.249-14.245-11.627-39.985,5.861-57.479c10.915-10.91,110.221-91.159,186.808-146.502l-19.403-19.41
		c-73.42,46.733-173.107,102.898-185.387,109.917c-20.042,11.464-43.279,5.704-51.894-12.863
		c-8.615-18.562,0.649-42.9,20.683-54.369c0,0,219.779-72.528,284.96-116.037c9.613-6.417,20.76-9.152,27.854-2.053L440.443,174.779
		z M327.451,121.606l-20.138-20.14c-0.127-0.127-0.204-0.279-0.322-0.406c-11.052,9.269-28.259,21.347-48.609,34.685l18.713,18.713
		C296.961,140.476,314.504,128.878,327.451,121.606z M377.299,171.454l-36.755-36.755c-8.443,11.77-21.735,27.623-37.668,45.538
		l28.89,28.884C349.68,193.188,365.526,179.903,377.299,171.454z M410.938,205.011c-0.127-0.12-0.276-0.195-0.403-0.322
		l-20.143-20.143c-7.268,12.947-18.868,30.49-32.85,50.356l18.718,18.713C389.589,233.269,401.669,216.06,410.938,205.011z"></path></g></g></svg>