<?xml version="1.0" encoding="iso-8859-1"?>
<!DOCTYPE svg PUBLIC "-//W3C//DTD SVG 1.1//EN" "http://www.w3.org/Graphics/SVG/1.1/DTD/svg11.dtd">
<svg 
 version="1.1" xmlns="http://www.w3.org/2000/svg" xmlns:xlink="http://www.w3.org/1999/xlink" x="0px" y="0px" width="512px"
	 height="512px" viewBox="0 0 512 512" enable-background="new 0 0 512 512" xml:space="preserve"
><g id="e6c6b53d3c8160b22dad35a0f70bc147"><g></g><g fill="#ffffff"><path display="inline" d="M473.777,38.214C448.359,12.798,413.881,0.486,376.64,0.489C324.928,0.493,267.9,24.241,222.523,69.62
		c-49.246,49.244-72.989,112.187-68.584,167.193c0.208,6.812-0.05,34.972-14.871,82.637c-5.753,18.504-9.757,27.704-12.03,32.102
		c-0.065,0.053-0.137,0.087-0.2,0.144L4.742,461.161c-5.457,4.893-5.678,13.134-0.499,18.316l28.267,28.268
		c5.184,5.18,13.464,4.993,18.404-0.416l110.506-121.042c0.761-0.833,1.357-1.762,1.876-2.729
		c5.146-2.377,14.062-5.921,29.241-10.636c46.715-14.526,74.637-15.06,82.122-14.886c4.48,0.373,9.014,0.563,13.585,0.563
		c51.716,0,108.746-23.757,154.125-69.136C520.423,211.413,534.485,98.924,473.777,38.214z M194.05,157.907l28.929,28.931
		l-30.874,30.881l-11.045-11.043c0.063-0.542,0.097-1.076,0.165-1.618C183.211,189.17,187.57,173.314,194.05,157.907z
		 M361.501,48.32l-30.878,30.876l-32.302-32.306c14.834-7.498,30.163-12.941,45.557-16.194L361.501,48.32z M409.418,31.278
		c15.402,4.101,29.021,11.299,40.495,21.269l-26.654,26.649L392.38,48.318L409.418,31.278z M205.369,297.086
		c-9.965-11.481-17.063-25.227-21.171-40.585l7.907-7.905l30.874,30.88L205.369,297.086z M207.542,233.156l30.874-30.881
		l30.883,30.881l-30.883,30.883L207.542,233.156z M315.186,187.274l-30.445,30.442l-30.882-30.881l30.44-30.442L315.186,187.274z
		 M299.74,140.954l30.883-30.881l30.878,30.881l-30.878,30.881L299.74,140.954z M284.736,248.598l30.879,30.878l-30.879,30.879
		l-30.883-30.874L284.736,248.598z M300.178,233.154l30.445-30.441l30.874,30.879l-30.44,30.442L300.178,233.154z M346.06,187.272
		l30.879-30.881l30.883,30.881l-30.883,30.881L346.06,187.272z M392.385,140.954l30.874-30.881l30.879,30.881l-30.879,30.878
		L392.385,140.954z M407.821,94.638l-30.883,30.876L346.06,94.636l30.879-30.879L407.821,94.638z M315.186,94.638l-30.883,30.879
		l-39.929-39.931c10.793-10.423,22.322-19.604,34.354-27.404L315.186,94.638z M268.865,140.956l-30.445,30.445l-34.209-34.216
		c7-12.451,15.409-24.455,25.127-35.756L268.865,140.956z M149.302,355.343c3.06-6.992,6.511-16.443,10.547-29.43
		c4.053-13.029,7.042-24.646,9.31-34.99c5.734,10.917,13.013,21.011,21.957,29.954c8.942,8.94,19.022,16.227,29.933,21.957
		c-10.338,2.269-21.948,5.257-34.973,9.304c-12.986,4.038-22.438,7.491-29.432,10.549L149.302,355.343z M221.565,311.769
		l16.851-16.855l30.883,30.879l-4.172,4.173C248.724,327.054,234.079,320.855,221.565,311.769z M300.174,325.796l30.883-30.883
		l23.032,23.032c-16.001,6.745-32.414,11.19-48.745,13.021L300.174,325.796z M346.498,279.476l30.44-30.446l33.594,33.592
		c-11.32,9.737-23.305,18.174-35.719,25.17L346.498,279.476z M392.38,233.592l30.879-30.879l30.531,30.53
		c-7.742,11.954-16.881,23.509-27.378,34.383L392.38,233.592z M438.696,187.272l30.883-30.878l11.798,11.8
		c-3.267,15.135-8.723,30.46-16.31,45.45L438.696,187.272z M482.938,112.155l-13.359,13.359l-30.883-30.876L464.738,68.6
		C474.008,81.348,480.032,96.146,482.938,112.155z M376.644,27.138h0.009c1.965,0,3.86,0.161,5.786,0.241l-5.5,5.5l-5.582-5.584
		C373.117,27.231,374.887,27.138,376.644,27.138z"></path></g></g></svg>