<?xml version="1.0" encoding="iso-8859-1"?>
<!DOCTYPE svg PUBLIC "-//W3C//DTD SVG 1.1//EN" "http://www.w3.org/Graphics/SVG/1.1/DTD/svg11.dtd">
<svg 
 version="1.1" xmlns="http://www.w3.org/2000/svg" xmlns:xlink="http://www.w3.org/1999/xlink" x="0px" y="0px" width="512px"
	 height="512px" viewBox="0 0 512 512" style="enable-background:new 0 0 512 512;" xml:space="preserve"
><g id="afcae5a789ccd549f9c6e2a2f8152f1f"><g></g><g fill="#ffffff"><path style="display: inline;" d="M230.625,1.791c53.844-5.417,109.828,6.107,159.452,36.693
		c14.14,8.719,27.085,18.622,38.887,29.451C387.895,55.807,305.08,49.132,177.761,118.29
		C150.202,76.724,200.118,26.773,230.625,1.791z M184.298,126.796c42.908,49.184,142.373,77.422,216.113,114.34
		c50.568,25.315,87.792,56.708,104.581,72.208c19.278-83.679-4.924-172.617-65.174-234.894
		C400.212,65.478,318.13,57.293,184.298,126.796z M156.303,251.997c-18.872-32.697-32.761-60.318-42.908-83.636
		c-14.195,10.054-26.636,22.063-37.511,34.928c23.317,57.27,20.3,152.488,38.746,220.424c8.08,29.783,25.788,52.302,42.339,67.835
		c72.559,30.615,153.638,25.184,220.338-10.709C344.974,468.455,253.547,420.485,156.303,251.997z M397.601,247.484
		c-76.834-36.87-179.551-63.196-221.075-116.603c-17.628,9.411-36.125,20.146-55.525,32.381c-0.354,0.222-0.686,0.468-1.027,0.69
		c10.11,23.266,23.987,50.629,43.066,82.823c105.561,178.109,193.27,220.993,220.705,230.55
		c35.581-20.489,66.72-49.861,89.779-87.269c13.645-22.14,23.476-45.545,29.73-69.461
		C487.376,305.5,449.184,272.235,397.601,247.484z M116.38,155.484c18.888-12.586,36.965-23.604,54.253-33.254
		c-29.135-48.589,21.625-96.708,51.725-119.495c-45.907,6.127-89.9,24.667-126.681,54.305
		C93.377,71.308,93.976,101.235,116.38,155.484z M66.34,202.328c-14.245-29.854-36.621-36.535-48.849-37.849
		c-18.953,49.244-21.727,101.989-9.875,151.26C12.38,300.132,30.15,247.813,66.34,202.328z M106.683,427.597
		c-18.891-63.668-16.21-162.967-36.795-216.945c-40.105,51.31-56.544,112.614-58.31,119.526
		c17.449,57.579,55.134,109.271,110.375,143.321c5.057,3.119,10.209,5.968,15.391,8.691
		C124.963,468.259,113.411,450.27,106.683,427.597z M72.218,195.207c10.96-12.821,23.457-24.881,37.633-35.161
		c-22.113-53.22-23.66-82.276-21.186-97.19C69.511,79.46,52.515,99.21,38.506,121.932c-7.325,11.888-13.518,24.153-18.691,36.654
		C33.154,159.848,57.368,166.305,72.218,195.207z"></path></g></g></svg>